# xmcd
#
# Track frame offsets:
#	150
#	47257
#	73247
#	134700
#	189390
#
# Disc length: 3134 seconds
#
# Revision: 0
# Processed by: cddbd v1.4PL0 Copyright (c) Steve Scherf et al.
# Submitted via: audiograbber 1.81.02
#
DISCID=460c3c05
DTITLE=Allman Brothers Band - Oak Mountain Amphitheater - 1996-05-03 - Disc 3
DYEAR=1900
DGENRE=
TTITLE0=Southbound
TTITLE1=No One To Run With
TTITLE2=Back Where It All Begins
TTITLE3=One Way Out
TTITLE4=Jessica 
EXTD=
EXTT0=
EXTT1=
EXTT2=
EXTT3=
EXTT4=
PLAYORDER=
